<mxfile host="app.diagrams.net" agent="Mozilla/5.0 (Windows NT 10.0; Win64; x64) AppleWebKit/537.36 (KHTML, like Gecko) Chrome/136.0.0.0 Safari/537.36" version="27.0.6">
  <diagram name="Страница — 1" id="VUTlnNTU5humRJAnNJ5C">
    <mxGraphModel dx="1095" dy="775" grid="1" gridSize="31" guides="1" tooltips="1" connect="1" arrows="1" fold="1" page="0" pageScale="1" pageWidth="3300" pageHeight="4681" math="0" shadow="0">
      <root>
        <mxCell id="0" />
        <mxCell id="1" parent="0" />
        <mxCell id="I5nvu3nXSdrWe8AoIKDK-40" style="edgeStyle=orthogonalEdgeStyle;rounded=0;orthogonalLoop=1;jettySize=auto;html=1;labelBackgroundColor=none;strokeColor=#FFFFFF;fontColor=default;" parent="1" source="I5nvu3nXSdrWe8AoIKDK-39" edge="1">
          <mxGeometry relative="1" as="geometry">
            <mxPoint x="61.99999999999977" y="155.0000000000001" as="targetPoint" />
            <Array as="points">
              <mxPoint x="-248" y="1116" />
              <mxPoint x="-248" y="155" />
            </Array>
          </mxGeometry>
        </mxCell>
        <mxCell id="edMPjMQ_JKsnDFMRJWxL-2" value="" style="rounded=1;whiteSpace=wrap;html=1;" vertex="1" parent="1">
          <mxGeometry x="-31" y="-248" width="120" height="60" as="geometry" />
        </mxCell>
        <mxCell id="edMPjMQ_JKsnDFMRJWxL-4" style="edgeStyle=orthogonalEdgeStyle;rounded=0;orthogonalLoop=1;jettySize=auto;html=1;" edge="1" parent="1" source="edMPjMQ_JKsnDFMRJWxL-3">
          <mxGeometry relative="1" as="geometry">
            <mxPoint x="29" y="-123.00000000000006" as="targetPoint" />
          </mxGeometry>
        </mxCell>
        <mxCell id="edMPjMQ_JKsnDFMRJWxL-3" value="початок" style="text;html=1;align=center;verticalAlign=middle;whiteSpace=wrap;rounded=0;" vertex="1" parent="1">
          <mxGeometry x="-1" y="-233" width="60" height="30" as="geometry" />
        </mxCell>
        <mxCell id="edMPjMQ_JKsnDFMRJWxL-20" style="edgeStyle=orthogonalEdgeStyle;rounded=0;orthogonalLoop=1;jettySize=auto;html=1;exitX=0.5;exitY=1;exitDx=0;exitDy=0;entryX=0.5;entryY=0;entryDx=0;entryDy=0;" edge="1" parent="1" source="edMPjMQ_JKsnDFMRJWxL-10" target="edMPjMQ_JKsnDFMRJWxL-19">
          <mxGeometry relative="1" as="geometry" />
        </mxCell>
        <mxCell id="edMPjMQ_JKsnDFMRJWxL-10" value="Піти до розетки та поставити телефон на зарядку" style="rounded=0;whiteSpace=wrap;html=1;" vertex="1" parent="1">
          <mxGeometry x="126" y="32" width="120" height="60" as="geometry" />
        </mxCell>
        <mxCell id="edMPjMQ_JKsnDFMRJWxL-12" style="edgeStyle=orthogonalEdgeStyle;rounded=0;orthogonalLoop=1;jettySize=auto;html=1;exitX=1;exitY=0.5;exitDx=0;exitDy=0;" edge="1" parent="1" source="edMPjMQ_JKsnDFMRJWxL-11">
          <mxGeometry relative="1" as="geometry">
            <mxPoint x="186" y="31" as="targetPoint" />
          </mxGeometry>
        </mxCell>
        <mxCell id="edMPjMQ_JKsnDFMRJWxL-14" style="edgeStyle=orthogonalEdgeStyle;rounded=0;orthogonalLoop=1;jettySize=auto;html=1;" edge="1" parent="1" source="edMPjMQ_JKsnDFMRJWxL-11" target="edMPjMQ_JKsnDFMRJWxL-15">
          <mxGeometry relative="1" as="geometry">
            <mxPoint x="-93" as="targetPoint" />
          </mxGeometry>
        </mxCell>
        <mxCell id="edMPjMQ_JKsnDFMRJWxL-11" value="У вас на телефоні більше ніж 35%?" style="rhombus;whiteSpace=wrap;html=1;" vertex="1" parent="1">
          <mxGeometry x="-31" y="-124" width="124" height="80" as="geometry" />
        </mxCell>
        <mxCell id="edMPjMQ_JKsnDFMRJWxL-16" style="edgeStyle=orthogonalEdgeStyle;rounded=0;orthogonalLoop=1;jettySize=auto;html=1;" edge="1" parent="1" source="edMPjMQ_JKsnDFMRJWxL-15" target="edMPjMQ_JKsnDFMRJWxL-17">
          <mxGeometry relative="1" as="geometry">
            <mxPoint x="-93" y="93" as="targetPoint" />
          </mxGeometry>
        </mxCell>
        <mxCell id="edMPjMQ_JKsnDFMRJWxL-15" value="піти дивитися тікток" style="rounded=0;whiteSpace=wrap;html=1;" vertex="1" parent="1">
          <mxGeometry x="-153" y="-30" width="120" height="61" as="geometry" />
        </mxCell>
        <mxCell id="edMPjMQ_JKsnDFMRJWxL-18" style="edgeStyle=orthogonalEdgeStyle;rounded=0;orthogonalLoop=1;jettySize=auto;html=1;" edge="1" parent="1" source="edMPjMQ_JKsnDFMRJWxL-17" target="edMPjMQ_JKsnDFMRJWxL-11">
          <mxGeometry relative="1" as="geometry" />
        </mxCell>
        <mxCell id="edMPjMQ_JKsnDFMRJWxL-17" value="перевірити %" style="rounded=0;whiteSpace=wrap;html=1;" vertex="1" parent="1">
          <mxGeometry x="-155" y="63" width="122" height="60" as="geometry" />
        </mxCell>
        <mxCell id="edMPjMQ_JKsnDFMRJWxL-21" style="edgeStyle=orthogonalEdgeStyle;rounded=0;orthogonalLoop=1;jettySize=auto;html=1;entryX=0;entryY=0.5;entryDx=0;entryDy=0;" edge="1" parent="1" source="edMPjMQ_JKsnDFMRJWxL-19" target="edMPjMQ_JKsnDFMRJWxL-15">
          <mxGeometry relative="1" as="geometry">
            <mxPoint x="-217" as="targetPoint" />
          </mxGeometry>
        </mxCell>
        <mxCell id="edMPjMQ_JKsnDFMRJWxL-19" value="через годину взяти телефон" style="rounded=0;whiteSpace=wrap;html=1;" vertex="1" parent="1">
          <mxGeometry x="126" y="155" width="120" height="60" as="geometry" />
        </mxCell>
      </root>
    </mxGraphModel>
  </diagram>
</mxfile>
